#!OML:ASF E:/inclinewalkrobotboard/Project1/Captureday1/Session1/subject1.ASF
:FULLY-SPECIFIED
:DEGREES
288
root 0 0 0 -3.8638808056822187 -0.9036197280400715 -2.714866081057947
lowerback 10.66633024187669 -1.1189682450840657 0.6858906161187154
upperback 0.2575788236892574 -1.2135144882853874 2.759861492331483
thorax -5.646812327459002 -0.5908077464064374 2.6766192816226906
lowerneck -18.369841144929968 -2.6987400694542374 -2.0704911782817477
upperneck 17.214535845287617 -3.0772357864898785 -0.2635301671669503
head 8.425197220770874 -1.6320594548615068 -0.15025490971904482
rclavicle -5.282855713371294E-16 -2.2249025185664613E-15
rhumerus -33.4287916583817 -26.517009113806992 -79.41768579250983
rradius 17.69020873739644
rwrist 10.647005390429687
rhand -18.309775040469955 24.940118625817576
rfingers 7.125020000000016
rthumb 7.987450635069375 -4.948953644436084
lclavicle -1.2687098072850978E-15 -1.8008126076027295E-15
lhumerus -28.494745506477692 -2.5457751380150087 84.38618616306474
lradius 28.457643360240983
lwrist 6.975141492118109
lhand -28.13493990505765 25.872904276629125
lfingers 7.125020000000041
lthumb -1.508220897321527 55.8980300629586
rfemur -7.035633303619028 7.6585944292534975 34.02503148120058
rtibia 36.4396767465673
rfoot -12.14148446928966 -5.425780853655837
rtoes 8.970936780850316
lfemur -10.5517635701902 2.5899668199973966 -17.608400724881662
ltibia 56.880614663154304
lfoot 7.688906108026842 -15.320284680370577
ltoes -2.6785738164788206
289
root 0 0 0 -4.080149383789493 -2.8321960142565326 -5.323218454092832
lowerback 8.803746509468208 0.030824232543392394 3.0514397002655134
upperback -0.5231975939013912 0.6112169096595352 2.874599826830559
thorax -5.394273765700552 0.25902204422547853 1.2474990949237594
lowerneck -18.37344005067497 -2.9152586348383918 -1.6871285077118516
upperneck 21.34542714117868 -3.6964341746727616 0.24418653980608296
head 9.96076808973021 -1.7816969695844647 -0.15394363719017173
rclavicle -1.1445090141853164E-15 -1.7583120663072628E-15
rhumerus -33.30168622726389 -24.677829180665384 -80.19644682733939
rradius 17.97507175018304
rwrist 10.77606018562036
rhand -18.08791332040709 25.41093492119994
rfingers 7.125020000000017
rthumb 8.201209565557662 -4.424013180869082
lclavicle -3.471392740898177E-15 -1.3803187080246522E-15
lhumerus -29.10983029740364 -1.4631545520555695 84.94098343171194
lradius 26.828716269224508
lwrist 6.2582982640557026
lhand -28.114967649902134 26.11337638002715
lfingers 7.1250200000000445
lthumb -1.4927928511400008 56.14308180536206
rfemur -5.271812834873918 7.808345922009476 34.91676042396428
rtibia 35.852259407739844
rfoot -13.976611743133203 -5.442787237941802
rtoes 9.192614419848535
lfemur -17.550377142560322 3.5659934932358652 -15.28908754266834
ltibia 58.072218590338956
lfoot 5.052650862041773 -12.225493881092135
ltoes -4.564058993589313
290
root 0 0 0 -3.5999744628778725 -4.6780319677094315 -7.553484183397071
lowerback 8.2003468213233 1.3067761434419833 5.520518730948005
upperback -0.7053108103415445 2.615480020394669 2.9564162508283873
thorax -5.178069129220269 1.1971671090419758 -0.32807690742350704
lowerneck -18.0150762668099 -3.420578232184339 -1.8475500721880596
upperneck 22.75580484648553 -4.4340382269164085 0.7435996558669329
head 10.344886328139996 -2.1063743401498374 -0.06821741326291342
rclavicle -2.4385900029284963E-15 5.95005836342717E-16
rhumerus -33.574398470832406 -21.655627679860373 -81.55501025536348
rradius 18.428579117382277
rwrist 9.290075428292202
rhand -17.91456792307259 26.014277452364162
rfingers 7.125020000000018
rthumb 8.368730296053418 -3.7557060755428253
lclavicle -5.403799007118457E-15 8.651506383432037E-16
lhumerus -30.01627661841529 -0.7036940165398778 85.42677451029563
lradius 25.86926703733491
lwrist 5.908686346885585
lhand -27.97936666936571 26.25479904530827
lfingers 7.125020000000045
lthumb -1.368193733289404 56.283793255322436
rfemur -3.003530270342683 8.067917301019522 35.01897602210306
rtibia 32.343956755799
rfoot -16.248901283441477 -5.693446014187282
rtoes 8.452166257510612
lfemur -27.289702237084082 3.1727782209554576 -10.87445019640396
ltibia 56.040521738735954
lfoot 1.541258432984968 -6.704681656976781
ltoes -8.702050369661912
291
root 0 0 0 -2.7134530063874056 -5.424580465264147 -7.814367888186279
lowerback 11.11002003145157 1.892302406409354 6.400330346570176
upperback 0.8884203742745921 3.472287080964331 2.74492263053585
thorax -5.072619950414392 1.5974574702692077 -1.2020590843994472
lowerneck -17.190675844111595 -3.6069977960342836 -2.1121983221743843
upperneck 22.486602989014827 -4.596491891879937 0.7793846685403331
head 10.104527699824576 -2.2188520364617763 -0.021889933487587443
rclavicle -2.7395284292905183E-15 2.4388724309862624E-15
rhumerus -32.83404783468766 -18.369498037046142 -82.26904886318236
rradius 20.394807829217335
rwrist 7.636677522908642
rhand -18.152010497315956 27.29057473489248
rfingers 7.125020000000021
rthumb 8.140458958445716 -2.472606917436586
lclavicle -6.1134267474623215E-15 2.1483996004172558E-15
lhumerus -30.623067327226117 -0.34053274448616144 85.99864096098686
lradius 25.29191494064006
lwrist 5.744522443480024
lhand -27.860662137828726 26.336556353933137
lfingers 7.125020000000046
lthumb -1.254374327043294 56.371648644386546
rfemur -1.0996815438159624 8.345940749025278 35.06167887197164
rtibia 29.301041960727098
rfoot -17.922521918674402 -5.994645296253848
rtoes 7.17958445867589
lfemur -30.27016888175133 2.2015000364959993 -10.02742207352166
ltibia 51.86561334028619
lfoot -0.3172971767088768 -3.848923914408259
ltoes -9.049057616554112
